<svg xmlns="http://www.w3.org/2000/svg" version="1.1" viewBox="0 0 425 425">
  <metadata id="metadata1">Created by https://svgstud.io and licensed under CC-BY-SA 4.0 license. Please attribute https://svgstud.io</metadata>
  <metadata id="prompt">spiral sphere</metadata>
  <metadata id="version">7</metadata>
  <metadata id="metadata2">https://svgstud.io</metadata>
  <metadata id="uid">883543d113696d85c935df3f1131852a4ec09bee8c64e8b6a8d8b32ff2de01a0</metadata>

  <style>
    @media (prefers-color-scheme: dark) {
      .layer path {
        fill: white
      }
    }
  </style>

  <g class="layer">
    <title>Layer 1</title>
    <path
        id="svg_1"
        d="m205.91,415.87c-8.55,-0.06 -19.59,-0.7 -24.54,-1.43c-4.95,-0.72 -13.27,-2.25 -18.5,-3.39c-5.23,-1.14 -13.77,-3.46 -19,-5.16c-5.23,-1.69 -14.94,-5.71 -21.58,-8.91c-6.65,-3.21 -17.45,-9.44 -24,-13.85c-6.56,-4.41 -16.42,-11.88 -21.92,-16.6c-5.5,-4.72 -14.64,-13.58 -20.3,-19.7c-5.67,-6.12 -13.37,-15.45 -17.11,-20.73c-3.75,-5.29 -8.72,-12.93 -11.05,-16.97c-2.34,-4.04 -5.72,-10.6 -7.53,-14.56c-1.81,-3.97 -4.9,-12.19 -6.86,-18.28c-1.97,-6.08 -4.55,-16.18 -5.73,-22.43c-1.57,-8.33 -2.28,-16.9 -2.65,-31.99c-0.32,-12.78 -0.07,-24.56 0.67,-31c0.64,-5.72 2.27,-15.35 3.62,-21.42c1.34,-6.07 3.58,-14.51 4.96,-18.76c1.39,-4.24 4.26,-11.72 6.38,-16.61c2.12,-4.89 6.44,-13.32 9.6,-18.74c3.15,-5.42 9.48,-14.83 14.05,-20.92c4.57,-6.08 12.98,-15.75 18.68,-21.5c5.7,-5.74 14.85,-13.87 20.32,-18.05c5.47,-4.19 13.21,-9.72 17.19,-12.29c3.98,-2.58 11.85,-7.05 17.5,-9.94c5.64,-2.89 14.53,-6.9 19.76,-8.89c5.23,-2 12.43,-4.51 16.01,-5.59c3.58,-1.08 11.01,-2.94 16.5,-4.13c5.5,-1.19 14.49,-2.81 19.99,-3.59c5.5,-0.78 15.26,-1.43 21.7,-1.44c6.43,-0.01 17.01,0.67 23.5,1.52c6.49,0.84 15.85,2.48 20.8,3.63c4.95,1.15 14.18,3.86 20.5,6.02c6.32,2.16 17.8,7.01 25.5,10.76c7.7,3.76 17.59,9.19 21.98,12.07c4.39,2.88 11.59,7.96 16,11.28c4.41,3.32 13.34,11.25 19.84,17.62c6.51,6.37 14.22,14.51 17.15,18.08c2.92,3.57 7.99,10.55 11.25,15.5c3.26,4.95 7.58,11.96 9.6,15.58c2.01,3.62 5.7,11.45 8.2,17.42c2.5,5.96 5.86,15.82 7.46,21.92c1.61,6.09 3.4,13.81 3.98,17.15c0.58,3.33 1.49,11.66 2.01,18.5c0.62,8.09 0.6,16.97 -0.06,25.43c-0.56,7.15 -2.11,18.47 -3.45,25.16c-1.34,6.68 -3.58,15.77 -4.97,20.19c-1.4,4.42 -5.28,14 -8.62,21.28c-3.35,7.28 -8.6,17.3 -11.66,22.26c-3.07,4.96 -9.96,14.45 -15.32,21.1c-5.36,6.66 -13.49,15.69 -18.07,20.07c-4.58,4.39 -11.47,10.51 -15.32,13.61c-3.85,3.1 -10.5,7.71 -14.78,10.24c-4.28,2.52 -8.01,4.59 -8.3,4.59c-0.29,0 -5.72,2.5 -12.08,5.56c-6.36,3.05 -11.36,5.75 -11.12,5.99c0.24,0.24 4.4,-0.9 9.25,-2.54c7.8,-2.64 8.61,-2.75 7.04,-1.02c-0.98,1.08 -6.1,4.17 -11.39,6.87c-5.29,2.71 -12.92,6.09 -16.95,7.53c-4.03,1.45 -11.33,3.75 -16.23,5.13c-4.89,1.37 -12.17,3.2 -16.17,4.05c-4,0.85 -12.43,2.2 -18.73,2.99c-6.31,0.79 -18.46,1.39 -27,1.33zm-31.04,-31.34c17.35,-0.31 24.32,-0.88 36.12,-2.95c8.04,-1.41 19.74,-3.89 26,-5.51c6.26,-1.62 16.11,-4.64 21.88,-6.71c5.77,-2.08 17.48,-7.26 26,-11.52c8.52,-4.26 20.68,-11.2 27,-15.42c6.32,-4.22 16.9,-11.96 23.5,-17.21c6.6,-5.24 20.58,-18.13 31.06,-28.63c11.49,-11.51 21.37,-22.42 24.89,-27.45c3.2,-4.59 7.14,-11.48 8.75,-15.31c1.61,-3.82 2.78,-7.57 2.61,-8.33c-0.17,-0.76 -7.85,8.61 -17.07,20.81c-9.21,12.2 -17.88,23.53 -19.26,25.18c-2.49,2.97 -2.48,2.93 0.62,-5.5c1.73,-4.68 4.89,-13.9 7.04,-20.5c2.15,-6.6 4.77,-15.38 5.82,-19.5c1.06,-4.12 2.65,-11.74 3.54,-16.92c0.89,-5.18 1.99,-16.05 2.44,-24.16c0.82,-14.75 0.82,-14.75 6.38,-23.11c3.06,-4.59 6.71,-10.82 8.11,-13.83c1.4,-3.01 2.55,-6.86 2.56,-8.54c0.01,-1.69 -1.27,-6.86 -2.84,-11.5c-1.57,-4.64 -4.52,-12.04 -6.55,-16.43c-2.03,-4.4 -5.78,-11.6 -8.33,-16c-2.55,-4.41 -7.66,-12.06 -11.35,-17.01c-3.69,-4.95 -11.82,-13.97 -18.06,-20.04c-6.25,-6.08 -14.98,-13.79 -19.4,-17.14c-4.43,-3.35 -11.87,-8.59 -16.55,-11.64c-4.68,-3.05 -14.33,-8.3 -21.46,-11.67c-7.12,-3.37 -16.59,-7.41 -21.03,-8.98c-4.44,-1.57 -13.22,-4 -19.5,-5.4c-6.28,-1.39 -17.04,-3.02 -23.92,-3.62c-6.88,-0.59 -16.77,-0.79 -22,-0.45c-5.23,0.35 -13.9,1.5 -19.28,2.56c-5.37,1.06 -12.24,3.02 -15.27,4.36c-3.02,1.33 -8.96,4.81 -13.2,7.72c-4.25,2.92 -10.52,8.08 -13.94,11.49c-3.42,3.4 -8.32,9.03 -10.87,12.5c-2.56,3.47 -6.14,9.25 -7.96,12.85c-1.81,3.6 -4.34,9.9 -5.61,14c-1.7,5.45 -2.32,9.88 -2.33,16.46c-0.01,7.76 0.38,9.83 2.78,15c1.53,3.3 4.39,7.65 6.36,9.67c1.96,2.02 6.23,4.87 9.49,6.33c4.8,2.15 7.43,2.66 13.81,2.66c5.84,0 9.11,-0.55 12.64,-2.11c2.62,-1.16 6.3,-3.27 8.16,-4.7c1.86,-1.42 4.23,-3.96 5.26,-5.65c1.87,-3.08 1.87,-3.08 2.81,-0.59c0.52,1.37 1.25,5.39 1.62,8.94c0.38,3.55 0.19,9.6 -0.41,13.45c-0.64,4.05 -2.56,10 -4.56,14.11c-2.59,5.3 -5.37,8.91 -10.95,14.22c-4.12,3.91 -9.19,8.18 -11.27,9.49c-2.08,1.31 -4.79,2.71 -6.03,3.1c-1.56,0.49 -2.25,0.31 -2.25,-0.6c0,-0.73 2.77,-4.7 6.15,-8.82c3.37,-4.12 7.58,-9.75 9.34,-12.5c1.77,-2.75 5.48,-9.05 8.26,-14c2.78,-4.95 5.5,-10.66 6.05,-12.68c0.55,-2.03 0.77,-3.91 0.5,-4.19c-0.28,-0.28 -3.95,2.23 -8.15,5.57c-4.21,3.34 -9.9,7.11 -12.65,8.39c-2.75,1.27 -7.7,3.03 -11,3.91c-3.3,0.88 -10.73,1.86 -16.5,2.18c-8.03,0.44 -12.03,0.19 -17,-1.08c-3.7,-0.94 -8.82,-3.24 -11.87,-5.33c-2.96,-2.03 -7.11,-5.97 -9.22,-8.77c-2.11,-2.8 -4.85,-7.32 -6.08,-10.05c-1.84,-4.06 -2.25,-6.74 -2.25,-14.95c-0.01,-7.63 0.54,-11.77 2.3,-17.45c1.26,-4.1 4.01,-10.85 6.1,-15c2.09,-4.15 5.8,-10.25 8.24,-13.55c2.44,-3.3 7.73,-9.28 11.75,-13.28c4.01,-4.01 7.08,-7.51 6.8,-7.78c-0.27,-0.27 -3.57,1.13 -7.33,3.13c-3.76,1.99 -9.47,5.41 -12.68,7.59c-3.21,2.18 -9.75,7.25 -14.55,11.27c-4.79,4.01 -11.45,10.17 -14.8,13.68c-3.35,3.52 -7.95,9.13 -10.22,12.48c-2.28,3.34 -5.6,9.19 -7.38,13c-2.72,5.8 -3.3,8.35 -3.63,15.91c-0.22,4.99 0.12,10.89 0.75,13.25c0.63,2.34 1.49,4.25 1.9,4.25c0.42,0 1.32,-3.26 2,-7.25c0.67,-3.99 1.95,-9.84 2.83,-13c0.88,-3.16 1.99,-5.75 2.47,-5.75c0.48,0 0.87,1.01 0.88,2.25c0,1.24 0.89,5.95 1.98,10.48c1.08,4.53 3.38,11.12 5.1,14.65c1.73,3.54 5.22,8.92 7.77,11.96c2.55,3.04 7.34,7.71 10.64,10.38c3.3,2.68 9.04,6.81 12.75,9.19c3.71,2.38 6.75,4.71 6.75,5.19c0,0.47 -1.24,1.21 -2.75,1.63c-1.51,0.42 -7.7,0.73 -13.75,0.69c-7.12,-0.05 -13.29,-0.7 -17.5,-1.84c-3.57,-0.96 -9.52,-3.33 -13.21,-5.27c-4.66,-2.44 -9.1,-6.01 -14.5,-11.66c-4.29,-4.48 -8.91,-10.29 -10.29,-12.9c-1.37,-2.61 -2.8,-4.75 -3.17,-4.75c-0.37,0 -0.9,1.24 -1.19,2.75c-0.28,1.51 -0.8,5.69 -1.14,9.28c-0.34,3.6 -0.15,9.42 0.42,12.94c0.56,3.52 2.23,8.77 3.7,11.68c1.47,2.9 4.81,7.68 7.43,10.62c2.62,2.94 7.3,7.3 10.4,9.69c3.09,2.39 10.45,6.72 16.34,9.64c10.71,5.29 10.71,5.29 4.21,5.34c-3.57,0.02 -10.27,-0.86 -14.88,-1.96c-4.6,-1.11 -11.89,-3.84 -16.19,-6.08c-4.3,-2.24 -10.74,-6.74 -14.31,-10.02c-3.58,-3.27 -7.48,-7.54 -8.68,-9.49c-1.51,-2.43 -2.52,-3.21 -3.23,-2.5c-0.6,0.6 -1.23,8.58 -1.5,18.91c-0.32,12.16 -0.1,19.01 0.7,21.42c0.64,1.96 3.29,5.76 5.88,8.46c2.59,2.7 8.11,7.46 12.27,10.59c4.15,3.12 10.98,7.26 15.17,9.2c4.18,1.93 10.46,4.19 13.94,5.01c3.48,0.83 11.47,1.99 17.75,2.58c8.23,0.78 14.78,0.78 23.42,-0.01c6.59,-0.6 16.51,-2.03 22.04,-3.18c5.54,-1.14 13.9,-3.43 18.59,-5.07c4.69,-1.64 12.33,-4.76 16.97,-6.92c4.65,-2.16 12.97,-6.94 18.5,-10.61c6.76,-4.48 14.19,-10.79 22.64,-19.22c8.64,-8.62 14.66,-15.7 19.22,-22.61c3.66,-5.53 8.43,-13.85 10.6,-18.5c2.17,-4.64 4.88,-12.01 6.03,-16.38c1.38,-5.3 2.07,-11.04 2.07,-17.28c0,-6.81 -0.56,-11.03 -2.08,-15.56c-1.15,-3.42 -3.48,-8.69 -5.19,-11.72c-1.71,-3.03 -6.06,-8.46 -9.67,-12.08c-4.2,-4.22 -8.89,-7.72 -13.06,-9.75c-3.57,-1.74 -9.2,-3.66 -12.5,-4.27c-3.3,-0.6 -7.99,-0.83 -10.43,-0.49c-2.44,0.33 -6.89,1.38 -9.9,2.32c-3.41,1.08 -7.27,3.35 -10.28,6.06c-3.34,3 -5.02,5.39 -5.47,7.77c-0.35,1.89 -1.01,3.44 -1.45,3.44c-0.45,0 -1.09,-1.27 -1.43,-2.83c-0.34,-1.56 -0.17,-4.82 0.38,-7.25c0.55,-2.43 1.86,-6.91 2.91,-9.94c1.05,-3.04 3.14,-7.99 4.66,-11c1.51,-3.02 4.67,-8.18 7.02,-11.48c2.34,-3.3 7.14,-8.75 10.66,-12.12c3.51,-3.37 9.03,-7.81 12.27,-9.88c3.23,-2.07 8.35,-4.63 11.37,-5.69c3.02,-1.07 9.3,-2.37 13.95,-2.9c5.64,-0.64 12,-0.6 19.1,0.11c5.85,0.58 13.57,1.52 17.14,2.07c3.57,0.56 10.1,1.92 14.5,3.03c4.4,1.11 12.05,3.63 17,5.59c4.95,1.97 11.93,5.35 15.5,7.52c3.57,2.17 10.03,6.48 14.34,9.58c4.31,3.1 13.78,11.75 21.04,19.21c9.92,10.2 14.91,16.29 20.03,24.45c3.76,5.98 8.11,13.73 9.67,17.21c1.57,3.49 3.76,9.31 4.88,12.94c1.12,3.62 2.04,7.9 2.04,9.51c0,1.6 -1.11,5.64 -2.46,8.98c-1.36,3.33 -5.06,9.96 -8.22,14.73c-3.17,4.76 -9.6,12.51 -14.29,17.22c-4.69,4.72 -10.6,10.23 -13.13,12.25c-2.53,2.03 -5.15,3.69 -5.82,3.69c-0.68,0 -0.99,-0.76 -0.7,-1.75c0.28,-0.96 1.2,-4.23 2.05,-7.25c0.85,-3.02 2.45,-9.94 3.55,-15.36c1.56,-7.59 2.02,-13.74 2.02,-26.71c0,-12.5 -0.49,-19.39 -1.91,-26.64c-1.05,-5.39 -3.28,-13.54 -4.96,-18.12c-1.68,-4.59 -4.62,-11.11 -6.54,-14.5c-1.92,-3.4 -5.54,-8.74 -8.03,-11.89c-2.5,-3.15 -7.59,-8.25 -11.3,-11.33c-3.72,-3.08 -9.78,-7.41 -13.48,-9.62c-3.69,-2.21 -10.08,-5.33 -14.19,-6.92c-4.12,-1.6 -10.1,-3.59 -13.29,-4.43c-3.19,-0.84 -9.92,-1.54 -14.95,-1.56c-7.27,-0.03 -10.77,0.5 -17,2.58c-4.32,1.44 -10.92,4.43 -14.68,6.65c-3.75,2.22 -9.98,7 -13.83,10.64c-3.85,3.63 -7.86,8.29 -8.91,10.35c-1.28,2.51 -1.56,3.97 -0.85,4.41c0.59,0.36 3.6,0.35 6.68,-0.04c3.09,-0.39 9.83,-2 14.99,-3.59c5.16,-1.58 12.37,-3.4 16.02,-4.04c3.91,-0.68 10.56,-0.91 16.19,-0.56c5.25,0.33 11.79,1.36 14.54,2.3c2.75,0.94 6.61,2.72 8.58,3.95c1.97,1.24 5.42,4.33 7.66,6.87c2.24,2.55 5.96,7.75 8.26,11.56c2.31,3.82 5.51,11.03 7.12,16.03c1.61,5.01 3.31,12.89 3.78,17.53c0.47,4.71 0.47,12.22 -0.01,16.99c-0.48,4.69 -2,11.91 -3.39,16.04c-1.38,4.12 -3.92,10.29 -5.64,13.7c-1.73,3.42 -4.96,8.91 -7.19,12.21c-2.23,3.3 -7.37,10.16 -11.41,15.25c-4.04,5.09 -7.72,9.25 -8.17,9.25c-0.45,0 0.42,-6.19 1.93,-13.75c1.51,-7.56 3.06,-16.79 3.45,-20.5c0.38,-3.71 0.44,-6.75 0.14,-6.75c-0.3,0 -2.07,3.26 -3.92,7.25c-1.86,3.99 -5.54,10.4 -8.18,14.25c-2.64,3.85 -7.51,10.07 -10.82,13.82c-3.32,3.76 -10.34,10.44 -15.61,14.86c-5.27,4.42 -14.84,11.52 -21.26,15.79c-6.42,4.26 -15.65,9.8 -20.5,12.3c-4.85,2.5 -13.21,6.36 -18.59,8.59c-5.37,2.23 -13.92,5.38 -19,7c-5.07,1.62 -13.96,4.09 -19.73,5.49c-5.77,1.39 -15.28,3.24 -21.13,4.09c-5.84,0.86 -16.14,1.56 -22.87,1.56c-6.73,0 -16.98,-0.7 -22.77,-1.56c-5.79,-0.86 -14.17,-2.72 -18.63,-4.12c-4.45,-1.41 -11.13,-4.08 -14.83,-5.94c-3.69,-1.86 -7,-3.38 -7.35,-3.38c-0.35,0 -0.31,0.79 0.08,1.75c0.39,0.96 2.43,6.57 4.53,12.45c2.09,5.89 5.45,13.82 7.45,17.63c2.78,5.29 4.97,7.91 9.29,11.11c3.11,2.31 8.82,5.71 12.69,7.56c3.87,1.86 10.42,4.31 14.54,5.46c4.12,1.14 11.55,2.75 16.5,3.56c5.15,0.84 15.58,1.47 24.37,1.48c8.63,0 20.03,-0.68 26,-1.54c5.85,-0.85 15.36,-2.66 21.13,-4.03c5.77,-1.36 13.43,-3.41 17,-4.56c3.57,-1.15 13.25,-4.73 21.5,-7.97c8.25,-3.23 22.2,-9.75 31,-14.49c8.8,-4.73 19.38,-10.88 23.5,-13.65c4.12,-2.78 11.55,-8.09 16.5,-11.82c4.95,-3.73 12.78,-10.29 17.41,-14.59c4.62,-4.3 10.66,-10.52 13.41,-13.83c2.76,-3.31 5.46,-6.02 6,-6.02c0.55,0 2.23,3.6 3.73,8c1.5,4.4 3.24,9.29 3.86,10.87c1.13,2.87 1.13,2.87 3.96,-1c1.55,-2.13 4.98,-6.26 7.62,-9.18c2.64,-2.92 10.49,-9.92 17.44,-15.55c6.94,-5.64 13.25,-10.63 14.01,-11.1c1.13,-0.7 1.25,0.18 0.68,5.04c-0.38,3.24 -2.07,9.95 -3.75,14.91c-1.68,4.95 -5.48,13.63 -8.44,19.27c-2.96,5.64 -7.67,13.65 -10.47,17.79c-2.79,4.15 -7.85,10.78 -11.24,14.75c-3.39,3.96 -9.52,10.52 -13.61,14.57c-4.1,4.06 -10.72,9.91 -14.71,13c-3.99,3.1 -9.24,7.09 -11.67,8.87c-2.43,1.79 -8.65,5.81 -13.82,8.93c-5.18,3.13 -14.81,8.24 -21.41,11.37c-6.6,3.12 -16.5,7.3 -22,9.27c-5.5,1.98 -14.89,5 -20.86,6.71c-5.98,1.72 -16.1,4.19 -22.5,5.5c-6.4,1.31 -16.01,2.85 -21.35,3.43c-5.34,0.58 -17.04,1.05 -26,1.05c-9.54,-0.01 -20.02,-0.62 -25.29,-1.47c-4.95,-0.81 -13.9,-2.85 -19.88,-4.54c-5.99,-1.68 -11.09,-2.85 -11.35,-2.6c-0.25,0.26 1.5,1.89 3.89,3.63c2.39,1.74 5.67,3.85 7.3,4.71c1.63,0.85 7.71,3.23 13.5,5.29c5.8,2.06 14.81,4.72 20.04,5.91c5.23,1.2 14,2.81 19.5,3.59c7.02,0.99 16.42,1.3 31.5,1.03z"
        fill="black" fill-rule="evenodd"
    />
  </g>
</svg>